<svg width="108" height="108" xmlns="http://www.w3.org/2000/svg" xmlns:xlink="http://www.w3.org/1999/xlink" xml:space="preserve" overflow="hidden"><defs><filter id="fx0" x="-10%" y="-10%" width="120%" height="120%" filterUnits="userSpaceOnUse" primitiveUnits="userSpaceOnUse"><feComponentTransfer color-interpolation-filters="sRGB"><feFuncR type="discrete" tableValues="0 0"/><feFuncG type="discrete" tableValues="0 0"/><feFuncB type="discrete" tableValues="0 0"/><feFuncA type="linear" slope="0.4" intercept="0"/></feComponentTransfer><feGaussianBlur stdDeviation="1.77778 1.77778"/></filter><clipPath id="clip1"><rect x="358" y="245" width="108" height="108"/></clipPath><clipPath id="clip2"><rect x="13" y="7" width="85" height="97"/></clipPath><clipPath id="clip3"><rect x="0" y="0" width="110" height="110"/></clipPath><clipPath id="clip4"><rect x="7" y="7" width="97" height="97"/></clipPath><clipPath id="clip5"><rect x="7" y="7" width="97" height="97"/></clipPath><clipPath id="clip6"><rect x="7" y="7" width="97" height="97"/></clipPath><clipPath id="clip7"><rect x="367" y="254" width="96" height="96"/></clipPath><clipPath id="clip8"><rect x="367" y="254" width="96" height="96"/></clipPath><clipPath id="clip9"><rect x="367" y="254" width="96" height="96"/></clipPath></defs><g clip-path="url(#clip1)" transform="translate(-358 -245)"><g clip-path="url(#clip2)" filter="url(#fx0)" transform="translate(357 244)"><g clip-path="url(#clip3)"><g clip-path="url(#clip4)"><g clip-path="url(#clip5)"><g clip-path="url(#clip6)"><path d="M85.1716 27.1716 68.1716 27.1716 68.1716 22.1716C68.1716 18.2716 65.0716 15.1716 61.1716 15.1716L49.1716 15.1716C45.2716 15.1716 42.1716 18.2716 42.1716 22.1716L42.1716 27.1716 25.1716 27.1716C22.9716 27.1716 21.1716 28.9716 21.1716 31.1716L21.1716 35.1716 89.1716 35.1716 89.1716 31.1716C89.1716 28.9716 87.3716 27.1716 85.1716 27.1716ZM48.1716 22.1716C48.1716 21.5716 48.5716 21.1716 49.1716 21.1716L61.1716 21.1716C61.7716 21.1716 62.1716 21.5716 62.1716 22.1716L62.1716 27.1716 48.1716 27.1716 48.1716 22.1716Z" fill="#7F7F7F"/><path d="M27.1716 91.1716C27.1716 93.3716 28.9716 95.1716 31.1716 95.1716L79.1716 95.1716C81.3716 95.1716 83.1716 93.3716 83.1716 91.1716L83.1716 39.1716 27.1716 39.1716 27.1716 91.1716ZM68.1716 45.1716 74.1716 45.1716 74.1716 89.1716 68.1716 89.1716 68.1716 45.1716ZM52.1716 45.1716 58.1716 45.1716 58.1716 89.1716 52.1716 89.1716 52.1716 45.1716ZM36.1716 45.1716 42.1716 45.1716 42.1716 89.1716 36.1716 89.1716 36.1716 45.1716Z" fill="#7F7F7F"/></g></g></g></g></g><g clip-path="url(#clip7)"><g clip-path="url(#clip8)"><g clip-path="url(#clip9)"><path d="M445 274 428 274 428 269C428 265.1 424.9 262 421 262L409 262C405.1 262 402 265.1 402 269L402 274 385 274C382.8 274 381 275.8 381 278L381 282 449 282 449 278C449 275.8 447.2 274 445 274ZM408 269C408 268.4 408.4 268 409 268L421 268C421.6 268 422 268.4 422 269L422 274 408 274 408 269Z" fill="#7F7F7F"/><path d="M387 338C387 340.2 388.8 342 391 342L439 342C441.2 342 443 340.2 443 338L443 286 387 286 387 338ZM428 292 434 292 434 336 428 336 428 292ZM412 292 418 292 418 336 412 336 412 292ZM396 292 402 292 402 336 396 336 396 292Z" fill="#7F7F7F"/></g></g></g></g></svg>